<svg width="140" height="140" viewBox="0 0 140 140" fill="none" xmlns="http://www.w3.org/2000/svg">
<g clip-path="url(#clip0_42_150)">
<path d="M2.18743 119.647H137.812C138.199 119.652 138.58 119.556 138.917 119.369C139.254 119.181 139.534 118.909 139.73 118.579C139.926 118.249 140.029 117.874 140.031 117.492C140.032 117.11 139.931 116.734 139.737 116.403L126.733 92.6113C126.833 92.2592 126.889 91.8958 126.897 91.5299V28.8072C126.897 27.66 126.436 26.5597 125.615 25.7485C124.795 24.9372 123.682 24.4815 122.522 24.4815H51.9312C52.4415 25.8793 52.4415 27.4095 51.9312 28.8072H122.5V91.5299H17.4999V75.1463C16.0862 75.6509 14.5386 75.6509 13.1249 75.1463V91.5299C13.1331 91.8958 13.1883 92.2592 13.289 92.6113L0.262432 116.403C0.069089 116.734 -0.0320722 117.11 -0.0307489 117.492C-0.0294256 117.874 0.0743347 118.249 0.269965 118.579C0.465595 118.909 0.746107 119.181 1.08293 119.369C1.41976 119.556 1.80086 119.652 2.18743 119.647ZM16.4937 95.8556H123.495L134.137 115.321H5.85149L16.4937 95.8556Z" fill="black"/>
<path d="M60.2766 106.94L57.9688 111.266H82.0312L79.7234 106.94H60.2766Z" fill="black"/>
<path d="M35.2734 60.8499H51.8219C52.402 60.8499 52.9584 60.622 53.3687 60.2164C53.7789 59.8108 54.0094 59.2606 54.0094 58.687C54.0094 58.1134 53.7789 57.5632 53.3687 57.1576C52.9584 56.752 52.402 56.5241 51.8219 56.5241H35.2734C34.6933 56.5241 34.1369 56.752 33.7266 57.1576C33.3164 57.5632 33.0859 58.1134 33.0859 58.687C33.0859 59.2606 33.3164 59.8108 33.7266 60.2164C34.1369 60.622 34.6933 60.8499 35.2734 60.8499ZM35.2734 69.5013H58.3844C58.9645 69.5013 59.5209 69.2734 59.9312 68.8678C60.3414 68.4622 60.5719 67.912 60.5719 67.3384C60.5719 66.7648 60.3414 66.2147 59.9312 65.809C59.5209 65.4034 58.9645 65.1756 58.3844 65.1756H35.2734C34.6933 65.1756 34.1369 65.4034 33.7266 65.809C33.3164 66.2147 33.0859 66.7648 33.0859 67.3384C33.0859 67.912 33.3164 68.4622 33.7266 68.8678C34.1369 69.2734 34.6933 69.5013 35.2734 69.5013ZM35.2734 78.1527H63.8531C64.4333 78.1527 64.9897 77.9248 65.3999 77.5192C65.8102 77.1136 66.0406 76.5634 66.0406 75.9898C66.0406 75.4162 65.8102 74.8661 65.3999 74.4604C64.9897 74.0548 64.4333 73.827 63.8531 73.827H35.2734C34.6933 73.827 34.1369 74.0548 33.7266 74.4604C33.3164 74.8661 33.0859 75.4162 33.0859 75.9898C33.0859 76.5634 33.3164 77.1136 33.7266 77.5192C34.1369 77.9248 34.6933 78.1527 35.2734 78.1527ZM79.7453 57.6921C79.5422 57.491 79.3009 57.3315 79.0353 57.2226C78.7698 57.1138 78.4851 57.0578 78.1977 57.0578C77.9102 57.0578 77.6255 57.1138 77.36 57.2226C77.0944 57.3315 76.8532 57.491 76.65 57.6921L69.6828 64.5916C69.4794 64.7925 69.3181 65.031 69.208 65.2936C69.0979 65.5561 69.0412 65.8376 69.0412 66.1218C69.0412 66.406 69.0979 66.6875 69.208 66.95C69.3181 67.2126 69.4794 67.4511 69.6828 67.652L76.6609 74.5515C77.0714 74.9574 77.6281 75.1854 78.2086 75.1854C78.7891 75.1854 79.3458 74.9574 79.7562 74.5515C80.1667 74.1457 80.3973 73.5952 80.3973 73.0213C80.3973 72.4474 80.1667 71.8969 79.7562 71.4911L74.2875 66.084L79.7562 60.6768C80.1426 60.2732 80.357 59.738 80.3549 59.1823C80.3529 58.6266 80.1346 58.0929 79.7453 57.6921ZM99.2141 74.5407C99.4172 74.7418 99.6585 74.9013 99.924 75.0102C100.19 75.119 100.474 75.175 100.762 75.175C101.049 75.175 101.334 75.119 101.599 75.0102C101.865 74.9013 102.106 74.7418 102.309 74.5407L109.287 67.652C109.491 67.4511 109.652 67.2126 109.762 66.95C109.872 66.6875 109.929 66.406 109.929 66.1218C109.929 65.8376 109.872 65.5561 109.762 65.2936C109.652 65.031 109.491 64.7925 109.287 64.5916L102.32 57.7029C102.117 57.502 101.876 57.3425 101.61 57.2338C101.345 57.125 101.06 57.0691 100.773 57.0691C100.485 57.0691 100.201 57.125 99.9351 57.2338C99.6695 57.3425 99.4282 57.502 99.225 57.7029C99.0218 57.9039 98.8605 58.1424 98.7505 58.405C98.6406 58.6675 98.5839 58.9489 98.5839 59.2331C98.5839 59.5173 98.6406 59.7987 98.7505 60.0613C98.8605 60.3238 99.0218 60.5624 99.225 60.7633L104.694 66.1705L99.225 71.5776C98.8421 71.9773 98.6277 72.5064 98.6257 73.057C98.6237 73.6076 98.8341 74.1382 99.2141 74.5407ZM90.0922 58.4923L84.7656 73.0916C84.6584 73.3606 84.6068 73.6482 84.614 73.9373C84.6211 74.2264 84.6868 74.5111 84.8072 74.7747C84.9276 75.0382 85.1002 75.2752 85.3148 75.4717C85.5294 75.6681 85.7817 75.82 86.0568 75.9184C86.3318 76.0167 86.624 76.0596 86.9161 76.0443C87.2081 76.0291 87.4942 75.9561 87.7572 75.8297C88.0202 75.7033 88.255 75.526 88.4475 75.3083C88.64 75.0906 88.7865 74.8369 88.8781 74.5623L94.2156 59.9631C94.3941 59.4284 94.3547 58.846 94.1057 58.3396C93.8567 57.8333 93.4179 57.4429 92.8824 57.2513C92.3469 57.0598 91.757 57.0823 91.238 57.3141C90.719 57.5458 90.3119 57.9685 90.1031 58.4923H90.0922ZM107.734 39.8053H103.173C102.593 39.8053 102.037 40.0332 101.627 40.4388C101.216 40.8444 100.986 41.3945 100.986 41.9681C100.986 42.5418 101.216 43.0919 101.627 43.4975C102.037 43.9031 102.593 44.131 103.173 44.131H107.734C108.315 44.131 108.871 43.9031 109.281 43.4975C109.691 43.0919 109.922 42.5418 109.922 41.9681C109.922 41.3945 109.691 40.8444 109.281 40.4388C108.871 40.0332 108.315 39.8053 107.734 39.8053ZM94.6094 39.8053H90.0484C89.4683 39.8053 88.9119 40.0332 88.5016 40.4388C88.0914 40.8444 87.8609 41.3945 87.8609 41.9681C87.8609 42.5418 88.0914 43.0919 88.5016 43.4975C88.9119 43.9031 89.4683 44.131 90.0484 44.131H94.6094C95.1895 44.131 95.7459 43.9031 96.1562 43.4975C96.5664 43.0919 96.7969 42.5418 96.7969 41.9681C96.7969 41.3945 96.5664 40.8444 96.1562 40.4388C95.7459 40.0332 95.1895 39.8053 94.6094 39.8053Z" fill="black"/>
<path d="M118.125 37.4586C118.125 36.3114 117.664 35.2111 116.844 34.3999C116.023 33.5887 114.91 33.1329 113.75 33.1329H26.25C25.0897 33.1329 23.9769 33.5887 23.1564 34.3999C22.3359 35.2111 21.875 36.3114 21.875 37.4586V82.8785C21.875 84.0258 22.3359 85.126 23.1564 85.9373C23.9769 86.7485 25.0897 87.2042 26.25 87.2042H113.75C114.91 87.2042 116.023 86.7485 116.844 85.9373C117.664 85.126 118.125 84.0258 118.125 82.8785V75.1463C116.711 75.6509 115.164 75.6509 113.75 75.1463V82.8785H26.25V50.4358H113.75V55.897C115.164 55.3924 116.711 55.3924 118.125 55.897V37.4586ZM26.25 46.11V37.4586H113.75V46.11H26.25Z" fill="black"/>
<path d="M113.75 62.007V69.0363C113.735 69.6099 113.952 70.1657 114.352 70.5815C114.752 70.9972 115.303 71.2389 115.883 71.2532C116.463 71.2675 117.025 71.0534 117.446 70.658C117.866 70.2625 118.11 69.718 118.125 69.1444V61.8989C118.118 61.6148 118.054 61.335 117.938 61.0753C117.821 60.8156 117.654 60.5812 117.446 60.3853C117.237 60.1895 116.992 60.0362 116.724 59.934C116.456 59.8319 116.17 59.783 115.883 59.7901C115.596 59.7972 115.313 59.8602 115.05 59.9754C114.787 60.0907 114.55 60.2559 114.352 60.4618C114.154 60.6677 113.999 60.9101 113.896 61.1752C113.792 61.4403 113.743 61.723 113.75 62.007ZM15.3125 59.8442C14.7323 59.8442 14.1759 60.072 13.7657 60.4776C13.3555 60.8833 13.125 61.4334 13.125 62.007V69.0363C13.125 69.6099 13.3555 70.16 13.7657 70.5656C14.1759 70.9713 14.7323 71.1991 15.3125 71.1991C15.8927 71.1991 16.4491 70.9713 16.8593 70.5656C17.2695 70.16 17.5 69.6099 17.5 69.0363V62.007C17.5 61.4334 17.2695 60.8833 16.8593 60.4776C16.4491 60.072 15.8927 59.8442 15.3125 59.8442ZM45.7516 24.4815H38.6422C38.062 24.4528 37.4941 24.6532 37.0634 25.0385C36.6326 25.4239 36.3743 25.9626 36.3453 26.5362C36.3163 27.1099 36.519 27.6714 36.9087 28.0973C37.2984 28.5232 37.8433 28.7785 38.4234 28.8072H45.9375C46.5177 28.7785 47.0625 28.5232 47.4523 28.0973C47.842 27.6714 48.0446 27.1099 48.0156 26.5362C47.9866 25.9626 47.7283 25.4239 47.2976 25.0385C46.8668 24.6532 46.2989 24.4528 45.7188 24.4815H45.7516ZM32.0797 26.6444C32.0856 25.9065 32.2188 25.1751 32.4734 24.4815H17.5C16.3397 24.4815 15.2269 24.9373 14.4064 25.7485C13.5859 26.5597 13.125 27.66 13.125 28.8072V55.8969C14.5387 55.3923 16.0863 55.3923 17.5 55.8969V28.8072H32.4625C32.2116 28.113 32.0821 27.3816 32.0797 26.6444Z" fill="black"/>
</g>
<defs>
<clipPath id="clip0_42_150">
<rect width="140" height="138.423" fill="white" transform="translate(0 0.690125)"/>
</clipPath>
</defs>
</svg>
