<svg width="140" height="140" viewBox="0 0 140 140" fill="none" xmlns="http://www.w3.org/2000/svg">
<g clip-path="url(#clip0_42_113)">
<path d="M39.6812 40.8838H56.9537V48.6982H39.6812V40.8838ZM39.6812 53.7268H56.9537V61.5412H39.6812V53.7268ZM54.9827 71.7196C55.8445 71.1007 56.8019 70.6238 57.8177 70.3072C58.2399 70.1883 58.6621 70.0888 59.104 70.0088V67.4847H62.1402V70.0088C63.6693 70.2467 65.0562 70.8436 66.2615 71.7196L68.0705 69.9093L70.223 72.057L68.414 73.8457C69.278 75.0179 69.8818 76.3892 70.1224 77.901H72.6971V80.9225H70.1224C69.8836 82.3884 69.2983 83.7778 68.414 84.9779L70.223 86.7882L68.0705 88.9164L66.2615 87.1277C65.0435 88.0038 63.6298 88.5766 62.1402 88.7975V91.3431H59.1062V88.7975C57.6164 88.5774 56.2025 88.0046 54.9849 87.1277L53.1758 88.9164L51.0233 86.7882L52.8324 84.9779C51.9481 83.7778 51.3628 82.3884 51.124 80.9225H48.5493V77.901H51.124C51.3646 76.3892 51.9683 75.0179 52.8324 73.8457L51.0233 72.057L53.1758 69.9093L54.9827 71.7196ZM61.3571 40.8838H78.6296V48.6982H61.3571V40.8838ZM61.3571 53.7268H78.6296V61.5412H61.3571V53.7268ZM78.1483 67.6642C78.7936 67.2018 79.5143 66.8522 80.279 66.6304C80.6005 66.5309 80.9221 66.4509 81.2437 66.4119V64.5043H83.5362V66.4119C84.6627 66.5698 85.7083 67.0283 86.6118 67.6642L87.979 66.3124L89.5868 67.9238L88.2196 69.2755C88.8824 70.1493 89.3265 71.1832 89.5058 72.3165H91.4352V74.5832H89.5058C89.3351 75.6856 88.8935 76.7298 88.2196 77.6242L89.5868 78.9759L87.979 80.5851L86.614 79.2355C85.6994 79.8806 84.6471 80.309 83.5383 80.4878V82.3954H81.2437V80.4878C80.127 80.3132 79.0666 79.8845 78.1462 79.2355L76.7987 80.5873L75.9149 79.7135L75.1712 78.9781L76.5383 77.6263C75.8635 76.7325 75.4218 75.6881 75.2521 74.5854H73.3227V72.3187H75.2521C75.4228 71.2163 75.8645 70.1721 76.5383 69.2777L75.1712 67.9259L76.8008 66.3146L78.1483 67.6642ZM83.0352 40.8838H100.327V48.6982H83.0352V40.8838ZM83.0352 53.7268H100.327V61.5412H83.0352V53.7268Z" fill="#788D9A"/>
<path d="M134.35 38.9351V104.225H5.65918V38.9351C5.65686 36.6757 6.56208 34.508 8.17582 32.9084C9.78956 31.3087 11.9797 30.4082 14.2648 30.4048H34.3526V95.1584H105.656V30.4069H125.724C128.012 30.4069 130.206 31.3054 131.824 32.9048C133.441 34.5041 134.35 36.6733 134.35 38.9351Z" fill="#7D7D7D"/>
<path d="M125.72 122.034H14.2713C13.1391 122.034 12.018 121.814 10.9719 121.386C9.92583 120.957 8.97535 120.33 8.17476 119.538C7.37418 118.746 6.73918 117.807 6.30604 116.772C5.87289 115.738 5.6501 114.63 5.65039 113.51V104.225H134.341V113.51C134.341 115.771 133.433 117.939 131.816 119.537C130.199 121.136 128.006 122.034 125.72 122.034Z" fill="#EDEDED"/>
<path d="M16.8591 39.4736H34.3526V95.1605H16.8591V39.4736Z" fill="#92B6CF"/>
<path d="M39.6812 40.8838H56.9537V48.6982H39.6812V40.8838ZM39.6812 53.7268H56.9537V61.5412H39.6812V53.7268ZM70.1246 77.9032H72.6993V80.9247H70.1246C69.8858 82.3905 69.3004 83.78 68.4162 84.98L70.2252 86.7903L68.0727 88.9186L66.2637 87.1299C65.0457 88.006 63.632 88.5788 62.1424 88.7996V91.3453H59.1062V88.7996C57.6164 88.5796 56.2025 88.0067 54.9849 87.1299L53.1758 88.9186L51.0233 86.7903L52.8324 84.98C51.9481 83.78 51.3628 82.3905 51.124 80.9247H48.5493V77.9032H51.124C51.3646 76.3913 51.9683 75.0201 52.8324 73.8478L51.0233 72.0591L53.1758 69.9114L54.9849 71.7217C55.8467 71.1029 56.804 70.6259 57.8199 70.3094C58.2421 70.1904 58.6643 70.0909 59.1062 70.0109V67.4869H62.1424V70.0109C63.6715 70.2488 65.0583 70.8458 66.2637 71.7217L68.0727 69.9114L70.2252 72.0591L68.4162 73.8478C69.2802 75.0201 69.884 76.3935 70.1246 77.9032ZM61.3571 40.8838H78.6296V48.6982H61.3571V40.8838ZM61.3571 53.7268H78.6296V61.5412H61.3571V53.7268ZM89.508 72.3165H91.4374V74.5832H89.508C89.3373 75.6856 88.8957 76.7298 88.2218 77.6242L89.589 78.9759L87.9812 80.5851L86.614 79.2355C85.6994 79.8805 84.6471 80.309 83.5383 80.4878V82.3954H81.2437V80.4878C80.127 80.3132 79.0666 79.8845 78.1462 79.2355L76.7987 80.5873L75.9149 79.7135L75.1712 78.9781L76.5383 77.6263C75.8635 76.7325 75.4218 75.6881 75.2521 74.5854H73.3227V72.3187H75.2521C75.4228 71.2163 75.8645 70.1721 76.5383 69.2777L75.1712 67.9259L76.8008 66.3146L78.1483 67.6664C78.7936 67.204 79.5143 66.8543 80.279 66.6325C80.6005 66.533 80.9221 66.453 81.2437 66.4141V64.5065H83.5362V66.4141C84.6627 66.572 85.7083 67.0305 86.6118 67.6664L87.979 66.3146L89.5868 67.9259L88.2196 69.2777C88.8846 70.1493 89.3287 71.1832 89.508 72.3165ZM83.0352 40.8838H100.327V48.6982H83.0352V40.8838ZM83.0352 53.7268H100.327V61.5412H83.0352V53.7268Z" fill="#78BFE8"/>
<path d="M105.656 39.4736H123.13V95.1605H105.656V39.4736Z" fill="#92B6CF"/>
<path d="M88.1957 133.021H51.7957L54.541 122.034H85.4503L88.1957 133.021Z" fill="#D7D6D6"/>
<path d="M93.4719 139.146H46.5194C45.7577 139.146 45.0271 138.847 44.4885 138.315C43.9498 137.782 43.6472 137.06 43.6472 136.307V135.859C43.6472 134.291 44.9335 133.019 46.5194 133.019H93.4719C95.0578 133.019 96.3441 134.291 96.3441 135.859V136.307C96.3441 137.875 95.0578 139.146 93.4719 139.146Z" fill="#EDEDED"/>
<path d="M69.9955 117.581C72.4818 117.581 74.4974 115.588 74.4974 113.13C74.4974 110.671 72.4818 108.678 69.9955 108.678C67.5092 108.678 65.4937 110.671 65.4937 113.13C65.4937 115.588 67.5092 117.581 69.9955 117.581Z" fill="#7D7D7D"/>
<path d="M105.656 4.69926V16.6879H34.3525V4.69926C34.3525 2.51262 36.1419 0.723938 38.3753 0.723938H101.636C103.847 0.723938 105.656 2.51262 105.656 4.69926Z" fill="#C9C9C9"/>
<path d="M34.3525 16.6879V95.1605H105.656V16.6879H34.3525ZM39.6813 40.8838H56.9538V48.6981H39.6813V40.8838ZM39.6813 53.7268H56.9538V61.5411H39.6813V53.7268ZM72.6994 80.9246H70.1247C69.8859 82.3905 69.3006 83.78 68.4163 84.98L70.2254 86.7903L68.0728 88.9185L66.2638 87.1299C65.0458 88.006 63.6321 88.5787 62.1425 88.7996V91.3453H59.1063V88.7996C57.6165 88.5795 56.2026 88.0067 54.985 87.1299L53.176 88.9185L51.0235 86.7903L52.8325 84.98C51.9482 83.78 51.3629 82.3905 51.1241 80.9246H48.5494V77.9031H51.1241C51.3647 76.3913 51.9685 75.02 52.8325 73.8478L51.0235 72.0591L53.176 69.9114L54.985 71.7217C55.8468 71.1028 56.8042 70.6259 57.82 70.3094C58.2422 70.1904 58.6644 70.0909 59.1063 70.0109V67.4868H62.1425V70.0109C63.6716 70.2488 65.0585 70.8457 66.2638 71.7217L68.0728 69.9114L70.2254 72.0591L68.4163 73.8478C69.2803 75.02 69.8841 76.3913 70.1247 77.9031H72.6994V80.9246ZM78.6297 53.7268V61.5411H61.3572V53.7268H78.6297ZM61.3572 48.6981V40.8838H78.6297V48.6981H61.3572ZM91.4397 74.5831H89.5103C89.3396 75.6856 88.898 76.7297 88.2241 77.6241L89.5913 78.9759L87.9835 80.5851L86.6141 79.2354C85.6996 79.8805 84.6472 80.309 83.5385 80.4877V82.3954H81.2438V80.4877C80.1271 80.3132 79.0667 79.8845 78.1463 79.2354L76.7988 80.5872L75.915 79.7134L75.1713 78.9781L76.5385 77.6263C75.8637 76.7324 75.4219 75.688 75.2522 74.5853H73.3229V72.3186H75.2522C75.4229 71.2162 75.8646 70.172 76.5385 69.2777L75.1713 67.9259L76.801 66.3146L78.1485 67.6663C78.7938 67.204 79.5144 66.8543 80.2791 66.6325C80.6007 66.533 80.9222 66.453 81.2438 66.4141V64.5064H83.5363V66.4141C84.6628 66.5719 85.7085 67.0305 86.6119 67.6663L87.9791 66.3146L89.5869 67.9259L88.2197 69.2777C88.8825 70.1515 89.3266 71.1853 89.506 72.3186H91.4353V74.5831H91.4397ZM100.328 61.5411H83.0354V53.7268H100.328V61.5411ZM100.328 48.6981H83.0354V40.8838H100.328V48.6981ZM100.328 35.8335H39.6813V23.2089H100.328V35.8335Z" fill="#EDEDED"/>
<path d="M39.6813 40.8838H56.9538V48.6982H39.6813V40.8838ZM39.6813 53.7268H56.9538V61.5412H39.6813V53.7268ZM54.9829 71.7196C55.8446 71.1007 56.802 70.6238 57.8179 70.3072C58.24 70.1883 58.6622 70.0888 59.1041 70.0088V67.4847H62.1404V70.0088C63.6694 70.2467 65.0563 70.8436 66.2616 71.7196L68.0707 69.9093L70.2232 72.057L68.4141 73.8456C69.2782 75.0179 69.8819 76.3892 70.1225 77.901H72.6972V80.9225H70.1225C69.8837 82.3884 69.2984 83.7778 68.4141 84.9779L70.2232 86.7882L68.0707 88.9164L66.2616 87.1277C65.0436 88.0038 63.6299 88.5766 62.1404 88.7975V91.3431H59.1063V88.7975C57.6165 88.5774 56.2026 88.0046 54.985 87.1277L53.176 88.9164L51.0235 86.7882L52.8325 84.9779C51.9482 83.7778 51.3629 82.3884 51.1241 80.9225H48.5494V77.901H51.1241C51.3647 76.3892 51.9685 75.0179 52.8325 73.8456L51.0235 72.057L53.176 69.9093L54.9829 71.7196ZM61.3572 40.8838H78.6297V48.6982H61.3572V40.8838ZM61.3572 53.7268H78.6297V61.5412H61.3572V53.7268ZM78.1485 67.6642C78.7938 67.2018 79.5144 66.8522 80.2791 66.6304C80.6007 66.5309 80.9222 66.4509 81.2438 66.4119V64.5043H83.5363V66.4119C84.6628 66.5698 85.7085 67.0283 86.6119 67.6642L87.9791 66.3124L89.5869 67.9238L88.2197 69.2755C88.8825 70.1493 89.3266 71.1832 89.506 72.3165H91.4353V74.5832H89.506C89.3353 75.6856 88.8936 76.7298 88.2197 77.6242L89.5869 78.9759L87.9791 80.5851L86.6141 79.2355C85.6996 79.8805 84.6472 80.309 83.5385 80.4878V82.3954H81.2438V80.4878C80.1271 80.3132 79.0667 79.8845 78.1463 79.2355L76.7988 80.5873L75.915 79.7135L75.1713 78.9781L76.5385 77.6263C75.8637 76.7325 75.4219 75.6881 75.2522 74.5854H73.3229V72.3187H75.2522C75.4229 71.2163 75.8646 70.1721 76.5385 69.2777L75.1713 67.9259L76.801 66.3146L78.1485 67.6642ZM83.0354 40.8838H100.328V48.6982H83.0354V40.8838ZM83.0354 53.7268H100.328V61.5412H83.0354V53.7268ZM34.3525 95.1606H105.656V95.18H34.3525V95.1606Z" fill="#EDEDED"/>
<path d="M96.6023 11.6982C98.2683 11.6982 99.6188 10.3629 99.6188 8.71567C99.6188 7.06844 98.2683 5.73309 96.6023 5.73309C94.9362 5.73309 93.5857 7.06844 93.5857 8.71567C93.5857 10.3629 94.9362 11.6982 96.6023 11.6982Z" fill="#EDEDED"/>
<path d="M87.3928 11.6982C89.0588 11.6982 90.4094 10.3629 90.4094 8.71567C90.4094 7.06844 89.0588 5.73309 87.3928 5.73309C85.7268 5.73309 84.3762 7.06844 84.3762 8.71567C84.3762 10.3629 85.7268 11.6982 87.3928 11.6982Z" fill="#EDEDED"/>
<path d="M78.1836 11.6982C79.8496 11.6982 81.2001 10.3629 81.2001 8.71567C81.2001 7.06844 79.8496 5.73309 78.1836 5.73309C76.5176 5.73309 75.167 7.06844 75.167 8.71567C75.167 10.3629 76.5176 11.6982 78.1836 11.6982Z" fill="#EDEDED"/>
<path d="M39.6812 23.2089H100.327V35.8335H39.6812V23.2089Z" fill="#78BFE8"/>
<path d="M39.6812 40.8838H56.9537V48.6982H39.6812V40.8838ZM39.6812 53.7268H56.9537V61.5412H39.6812V53.7268ZM61.3571 40.8838H78.6296V48.6982H61.3571V40.8838ZM61.3571 53.7268H78.6296V61.5412H61.3571V53.7268ZM83.0352 40.8838H100.327V48.6982H83.0352V40.8838ZM83.0352 53.7268H100.327V61.5412H83.0352V53.7268Z" fill="#D7D6D6"/>
<path d="M72.6993 80.9246V77.9031H70.1246C69.89 76.4361 69.3042 75.0457 68.4162 73.8478L70.2253 72.0591L68.0728 69.9114L66.2637 71.7217C65.048 70.8339 63.6348 70.2472 62.1424 70.0109V67.4868H59.1062V70.0109C58.6728 70.0897 58.2435 70.1893 57.8199 70.3094C56.8041 70.6259 55.8467 71.1028 54.9849 71.7217L53.1759 69.9114L51.0234 72.0591L52.8324 73.8478C51.9444 75.0457 51.3587 76.4361 51.124 77.9031H48.5493V80.9246H51.124C51.3646 82.4149 51.9684 83.8077 52.8324 84.98L51.0234 86.7903L53.1759 88.9185L54.9849 87.1299C56.2029 88.006 57.6166 88.5787 59.1062 88.7996V91.3453H62.1424V88.7996C63.6322 88.5796 65.0461 88.0067 66.2637 87.1299L68.0728 88.9185L70.2253 86.7903L68.4162 84.98C69.3005 83.78 69.8858 82.3905 70.1246 80.9246H72.6993ZM60.6331 83.3903C59.5262 83.3903 58.5418 82.9729 57.8178 82.2764C57.4278 81.9061 57.118 81.4613 56.9071 80.9691C56.6961 80.4769 56.5884 79.9474 56.5906 79.4128C56.5906 78.2795 57.0543 77.2651 57.8178 76.5492C58.5696 75.8211 59.5807 75.4141 60.6331 75.4159C62.8446 75.4159 64.6537 77.2045 64.6537 79.4128C64.6546 79.9352 64.5512 80.4526 64.3494 80.9354C64.1477 81.4183 63.8516 81.857 63.4781 82.2265C63.1046 82.5959 62.6611 82.8889 62.1729 83.0886C61.6847 83.2884 61.1614 83.3909 60.6331 83.3903ZM91.4396 74.5832V72.3165H89.5103C89.3395 71.2141 88.8979 70.1699 88.224 69.2755L89.5912 67.9237L87.9834 66.3124L86.6162 67.6642C85.7066 67.0103 84.6521 66.5809 83.5406 66.4119V64.5043H81.2437V66.4119C80.9161 66.4558 80.5932 66.5289 80.279 66.6304C79.5143 66.8521 78.7937 67.2018 78.1484 67.6642L76.8009 66.3124L75.1712 67.9237L76.5384 69.2755C75.8636 70.1694 75.4218 71.2138 75.2521 72.3165H73.3228V74.5832H75.2521C75.4337 75.7165 75.8756 76.7503 76.5384 77.6241L75.1712 78.9759L75.9149 79.7113L76.7987 80.5851L78.1462 79.2333C79.0518 79.8692 80.0974 80.3061 81.2437 80.4856V82.3932H83.5362V80.4856C84.6452 80.3077 85.6977 79.8791 86.6118 79.2333L87.979 80.5851L89.5868 78.9759L88.2196 77.6241C88.8944 76.7303 89.3362 75.6859 89.5059 74.5832H91.4396ZM82.3899 76.4324C81.5874 76.4347 80.8167 76.1218 80.2474 75.5625C79.678 75.0033 79.3566 74.2433 79.3537 73.4498C79.3537 72.615 79.7168 71.8385 80.279 71.3021C80.8215 70.7657 81.5653 70.4673 82.3899 70.4673C84.059 70.4673 85.4065 71.7996 85.4065 73.4498C85.4065 75.1001 84.059 76.4324 82.3899 76.4324Z" fill="#FEDC7D"/>
</g>
<defs>
<clipPath id="clip0_42_113">
<rect width="140" height="138.423" fill="white" transform="translate(0 0.723938)"/>
</clipPath>
</defs>
</svg>
