<svg width="86" height="150" viewBox="0 0 86 150" fill="none" xmlns="http://www.w3.org/2000/svg">
<g clip-path="url(#clip0_42_143)">
<path d="M6.32398 0.690237C5.49309 0.688269 4.67002 0.863249 3.90203 1.20514C3.13403 1.54702 2.43624 2.04909 1.84871 2.68249C1.26118 3.3159 0.795483 4.06818 0.478357 4.89614C0.161232 5.7241 -0.00107653 6.61143 0.000749215 7.5072V143.172C-0.00116785 144.068 0.161073 144.955 0.478158 145.783C0.795242 146.611 1.26092 147.364 1.84846 147.997C2.436 148.631 3.13383 149.133 3.90187 149.475C4.66991 149.817 5.49303 149.992 6.32398 149.99H79.6768C80.5078 149.992 81.3309 149.817 82.0989 149.475C82.867 149.133 83.5648 148.631 84.1523 147.997C84.7399 147.364 85.2056 146.611 85.5226 145.783C85.8397 144.955 86.002 144.068 86 143.172V7.50497C86.0019 6.6092 85.8396 5.72187 85.5224 4.89391C85.2053 4.06595 84.7396 3.31367 84.1521 2.68026C83.5646 2.04686 82.8668 1.54479 82.0988 1.2029C81.3308 0.861017 80.5077 0.686036 79.6768 0.688005L6.32398 0.690237ZM22.6839 9.05097H63.3176C63.4006 9.05077 63.4829 9.06825 63.5597 9.10243C63.6365 9.13661 63.7062 9.18682 63.765 9.25014C63.8237 9.31347 63.8703 9.38868 63.902 9.47146C63.9337 9.55424 63.9499 9.64295 63.9497 9.73251V11.9518C63.9499 12.0414 63.9337 12.1301 63.902 12.2129C63.8703 12.2957 63.8237 12.3709 63.765 12.4342C63.7062 12.4975 63.6365 12.5477 63.5597 12.5819C63.4829 12.6161 63.4006 12.6336 63.3176 12.6334H22.6832C22.6002 12.6336 22.5179 12.6161 22.4411 12.5819C22.3643 12.5477 22.2945 12.4975 22.2358 12.4342C22.1771 12.3709 22.1305 12.2957 22.0988 12.2129C22.0671 12.1301 22.0509 12.0414 22.0511 11.9518V9.73251C22.0509 9.64295 22.0671 9.55424 22.0988 9.47146C22.1305 9.38868 22.1771 9.31347 22.2358 9.25014C22.2945 9.18682 22.3643 9.13661 22.4411 9.10243C22.5179 9.06825 22.6009 9.05077 22.6839 9.05097ZM5.20502 20.9949H80.7958C81.0451 20.9943 81.292 21.0468 81.5225 21.1493C81.7529 21.2519 81.9623 21.4026 82.1386 21.5926C82.3148 21.7827 82.4546 22.0084 82.5497 22.2568C82.6449 22.5052 82.6936 22.7715 82.693 23.0402V122.265C82.6936 122.534 82.6449 122.8 82.5497 123.048C82.4546 123.297 82.3148 123.522 82.1386 123.712C81.9623 123.902 81.7529 124.053 81.5225 124.156C81.292 124.258 81.0451 124.311 80.7958 124.31H5.20502C4.95572 124.311 4.70876 124.258 4.47833 124.156C4.2479 124.053 4.03853 123.902 3.86224 123.712C3.68596 123.522 3.54623 123.297 3.45108 123.048C3.35593 122.8 3.30723 122.534 3.30777 122.265V23.0402C3.30723 22.7715 3.35593 22.5052 3.45108 22.2568C3.54623 22.0084 3.68596 21.7827 3.86224 21.5926C4.03853 21.4026 4.2479 21.2519 4.47833 21.1493C4.70876 21.0468 4.95572 20.9943 5.20502 20.9949ZM43.0004 131.307C44.0971 131.301 45.1707 131.647 46.0851 132.3C46.9995 132.953 47.7136 133.883 48.1369 134.974C48.5602 136.065 48.6736 137.266 48.4629 138.427C48.2521 139.587 47.7266 140.654 46.953 141.492C46.1793 142.33 45.1924 142.901 44.1171 143.134C43.0419 143.367 41.9267 143.25 40.913 142.799C39.8993 142.348 39.0326 141.582 38.4227 140.6C37.8129 139.617 37.4873 138.461 37.4873 137.279C37.4856 136.497 37.6268 135.722 37.9029 134.998C38.179 134.274 38.5847 133.617 39.0966 133.062C39.6085 132.508 40.2168 132.067 40.8866 131.766C41.5564 131.465 42.2747 131.309 43.0004 131.307Z" fill="#6C6E67"/>
</g>
<defs>
<clipPath id="clip0_42_143">
<rect width="86" height="149.299" fill="white" transform="translate(0 0.690125)"/>
</clipPath>
</defs>
</svg>
