<svg width="119" height="119" viewBox="0 0 119 119" fill="none" xmlns="http://www.w3.org/2000/svg">
<g clip-path="url(#clip0_62_330)">
<path d="M21.0729 9.59158e-06H97.9271C100.695 -0.00266623 103.437 0.554551 105.994 1.63977C108.552 2.72499 110.876 4.31691 112.834 6.32441C114.791 8.33192 116.343 10.7156 117.401 13.3391C118.459 15.9625 119.003 18.7742 119 21.6133V97.3867C119.003 100.226 118.459 103.037 117.401 105.661C116.343 108.284 114.791 110.668 112.834 112.676C110.876 114.683 108.552 116.275 105.994 117.36C103.437 118.445 100.695 119.003 97.9271 119H21.0729C18.3049 119.003 15.5634 118.445 13.0056 117.36C10.4477 116.275 8.12363 114.683 6.16631 112.676C4.20898 110.668 2.65686 108.284 1.59878 105.661C0.540687 103.037 -0.00259957 100.226 9.35179e-06 97.3867V21.6133C-0.00259957 18.7742 0.540687 15.9625 1.59878 13.3391C2.65686 10.7156 4.20898 8.33192 6.16631 6.32441C8.12363 4.31691 10.4477 2.72499 13.0056 1.63977C15.5634 0.554551 18.3049 -0.00266623 21.0729 9.59158e-06Z" fill="#659AD2"/>
<path d="M51.806 96.472C31.4422 96.472 14.875 79.9048 14.875 59.541C14.875 39.1771 31.4422 22.6099 51.806 22.6099C64.9462 22.6099 77.2012 29.6811 83.7879 41.0639L67.8051 50.3125C64.5085 44.615 58.3776 41.0754 51.806 41.0754C41.6239 41.0754 33.3405 49.3589 33.3405 59.541C33.3405 69.7227 41.6239 78.0065 51.806 78.0065C58.3783 78.0065 64.5092 74.4669 67.8062 68.7683L83.789 78.0166C77.2023 89.4004 64.947 96.472 51.806 96.472Z" fill="white"/>
<path d="M88.7371 57.4891H84.6334V53.3858H80.5304V57.4891H76.4268V61.5925H80.5304V65.6961H84.6334V61.5925H88.7371V57.4891Z" fill="white"/>
<path d="M104.125 57.4891H100.021V53.3858H95.9184V57.4891H91.8147V61.5925H95.9184V65.6961H100.021V61.5925H104.125V57.4891Z" fill="white"/>
</g>
<defs>
<clipPath id="clip0_62_330">
<rect width="119" height="119" fill="white"/>
</clipPath>
</defs>
</svg>
