<svg width="119" height="119" viewBox="0 0 119 119" fill="none" xmlns="http://www.w3.org/2000/svg">
<g clip-path="url(#clip0_62_317)">
<path d="M21.0729 9.59158e-06H97.9271C100.695 -0.00266623 103.437 0.554551 105.994 1.63977C108.552 2.72499 110.876 4.31691 112.834 6.32442C114.791 8.33192 116.343 10.7156 117.401 13.3391C118.459 15.9625 119.003 18.7742 119 21.6133V97.3867C119.003 100.226 118.459 103.037 117.401 105.661C116.343 108.284 114.791 110.668 112.834 112.676C110.876 114.683 108.552 116.275 105.994 117.36C103.437 118.445 100.695 119.003 97.9271 119H21.0729C18.3049 119.003 15.5634 118.445 13.0056 117.36C10.4477 116.275 8.12362 114.683 6.1663 112.676C4.20898 110.668 2.65686 108.284 1.59878 105.661C0.540687 103.037 -0.00259957 100.226 9.35179e-06 97.3867V21.6133C-0.00259957 18.7742 0.540687 15.9625 1.59878 13.3391C2.65686 10.7156 4.20898 8.33192 6.1663 6.32442C8.12362 4.31691 10.4477 2.72499 13.0056 1.63977C15.5634 0.554551 18.3049 -0.00266623 21.0729 9.59158e-06Z" fill="#2965F1"/>
<path d="M29.1282 49.0563L30.2991 62.1226H59.539V49.0563H29.1282ZM26.7749 22.61L27.9626 35.6763H59.539V22.61H26.7749ZM59.539 82.9909L59.4817 83.0061L44.9299 79.0768L43.9995 68.656H30.8829L32.7134 89.172L59.4788 96.6018L59.539 96.5854V82.9909Z" fill="#EBEBEB"/>
<path d="M89.8664 49.0563L92.225 22.61H59.4941V35.6763H77.9056L76.7167 49.0563H59.4941V62.1226H75.5838L74.0667 79.0686L59.4937 83.002V96.5956L86.2804 89.172L86.4768 86.9644L89.5477 52.565L89.8664 49.0563Z" fill="white"/>
</g>
<defs>
<clipPath id="clip0_62_317">
<rect width="119" height="119" fill="white"/>
</clipPath>
</defs>
</svg>
