<svg width="119" height="119" viewBox="0 0 119 119" fill="none" xmlns="http://www.w3.org/2000/svg">
<g clip-path="url(#clip0_62_309)">
<path d="M21.0729 9.59158e-06H97.9271C100.695 -0.00266623 103.437 0.554551 105.994 1.63977C108.552 2.72499 110.876 4.31691 112.834 6.32442C114.791 8.33192 116.343 10.7156 117.401 13.3391C118.459 15.9625 119.003 18.7742 119 21.6133V97.3867C119.003 100.226 118.459 103.037 117.401 105.661C116.343 108.284 114.791 110.668 112.834 112.676C110.876 114.683 108.552 116.275 105.994 117.36C103.437 118.445 100.695 119.003 97.9271 119H21.0729C18.3049 119.003 15.5634 118.445 13.0056 117.36C10.4477 116.275 8.12362 114.683 6.1663 112.676C4.20898 110.668 2.65686 108.284 1.59878 105.661C0.540687 103.037 -0.00259957 100.226 9.35179e-06 97.3867V21.6133C-0.00259957 18.7742 0.540687 15.9625 1.59878 13.3391C2.65686 10.7156 4.20898 8.33192 6.1663 6.32442C8.12362 4.31691 10.4477 2.72499 13.0056 1.63977C15.5634 0.554551 18.3049 -0.00266623 21.0729 9.59158e-06Z" fill="#F7DF1E"/>
<path d="M80.1398 93.1128C82.5368 97.0266 85.6554 99.9034 91.1709 99.9034C95.8044 99.9034 98.7642 97.5876 98.7642 94.3878C98.7642 90.5534 95.7231 89.1952 90.6231 86.9645L87.8276 85.765C79.7582 82.3272 74.3976 78.0206 74.3976 68.9161C74.3976 60.5295 80.7877 54.145 90.7742 54.145C97.884 54.145 102.995 56.6195 106.679 63.0984L97.9709 68.6895C96.0537 65.2517 93.9854 63.8973 90.7742 63.8973C87.4989 63.8973 85.423 65.9751 85.423 68.6895C85.423 72.0441 87.5008 73.4022 92.2986 75.48L95.0941 76.6776C104.595 80.7519 109.96 84.9056 109.96 94.2442C109.96 104.312 102.051 109.828 91.4297 109.828C81.0446 109.828 74.3352 104.879 71.0524 98.3922L80.1398 93.1128ZM40.6375 94.0818C42.3941 97.1985 43.9921 99.8335 47.8341 99.8335C51.508 99.8335 53.8257 98.396 53.8257 92.8068V54.7835H65.0079V92.9579C65.0079 104.537 58.2192 109.807 48.3101 109.807C39.3568 109.807 34.1718 105.173 31.5349 99.5926L40.6375 94.0818Z" fill="black"/>
</g>
<defs>
<clipPath id="clip0_62_309">
<rect width="119" height="119" fill="white"/>
</clipPath>
</defs>
</svg>
