<svg width="119" height="119" viewBox="0 0 119 119" fill="none" xmlns="http://www.w3.org/2000/svg">
<path d="M21.0729 9.59158e-06H97.9271C100.695 -0.00266623 103.437 0.554551 105.994 1.63977C108.552 2.72499 110.876 4.31691 112.834 6.32441C114.791 8.33192 116.343 10.7156 117.401 13.3391C118.459 15.9625 119.003 18.7742 119 21.6133V97.3867C119.003 100.226 118.459 103.037 117.401 105.661C116.343 108.284 114.791 110.668 112.834 112.676C110.876 114.683 108.552 116.275 105.994 117.36C103.437 118.445 100.695 119.003 97.9271 119H21.0729C18.3049 119.003 15.5634 118.445 13.0056 117.36C10.4477 116.275 8.12362 114.683 6.1663 112.676C4.20898 110.668 2.65686 108.284 1.59878 105.661C0.540687 103.037 -0.00259957 100.226 9.35179e-06 97.3867V21.6133C-0.00259957 18.7742 0.540687 15.9625 1.59878 13.3391C2.65686 10.7156 4.20898 8.33192 6.1663 6.32441C8.12362 4.31691 10.4477 2.72499 13.0056 1.63977C15.5634 0.554551 18.3049 -0.00266623 21.0729 9.59158e-06Z" fill="#F0F0F0"/>
<path d="M59.2355 104.125C58.0403 104.125 56.8533 103.811 55.8054 103.208L44.8873 96.7442C43.2566 95.8323 44.0523 95.5097 44.5902 95.3239C46.7644 94.5626 47.2057 94.3907 49.5265 93.0727C49.7705 92.9335 50.0897 92.9826 50.3394 93.13L58.7271 98.1073C59.03 98.271 59.4598 98.271 59.7406 98.1073L92.4449 79.2296C92.7478 79.0577 92.9442 78.7057 92.9442 78.3455V40.6066C92.9442 40.23 92.7478 39.8944 92.4383 39.7061L59.7471 20.8449C59.4442 20.6648 59.0431 20.6648 58.7402 20.8449L26.0555 39.7061C25.7387 39.8862 25.5373 40.2382 25.5373 40.5984V78.3373C25.5373 78.6975 25.7338 79.0413 26.0449 79.2132L35.0007 84.387C39.8634 86.8183 42.835 83.9531 42.835 81.0715V43.8238C42.835 43.2917 43.2525 42.8824 43.7846 42.8824H47.9269C48.4426 42.8824 48.8683 43.2917 48.8683 43.8238V81.0879C48.8683 87.5715 45.3318 91.2962 39.1839 91.2962C37.2929 91.2962 35.803 91.2962 31.6443 89.2497L23.0651 84.3051C20.9448 83.0772 19.635 80.785 19.635 78.3373V40.5984C19.635 38.1425 20.9448 35.8504 23.0651 34.6388L55.8021 15.753C57.8733 14.5823 60.6239 14.5823 62.6786 15.753L95.3748 34.647C97.4868 35.8667 98.8048 38.1507 98.8048 40.6066V78.3455C98.8048 80.7932 97.4868 83.0772 95.3748 84.3051L62.6786 103.191C61.6308 103.797 60.4438 104.108 59.2322 104.108" fill="#689F63"/>
<path d="M69.3373 78.1202C55.0276 78.1202 52.0273 71.5515 52.0273 66.0422C52.0273 65.5182 52.4498 65.1007 52.9745 65.1007H57.1986C57.6653 65.1007 58.0582 65.4405 58.1319 65.9014C58.7704 70.2057 60.6696 72.3767 69.3226 72.3767C76.2154 72.3767 79.1461 70.8197 79.1461 67.1645C79.1461 65.0606 78.3111 63.497 67.6034 62.4492C58.6476 61.5651 53.1137 59.5922 53.1137 52.4291C53.1137 45.831 58.6804 41.9016 68.0046 41.9016C78.4749 41.9016 83.665 45.5363 84.3199 53.346C84.3444 53.6162 84.2462 53.8781 84.0661 54.0746C83.886 54.2629 83.6322 54.3775 83.3703 54.3775H79.1216C78.6795 54.3775 78.2948 54.0664 78.2047 53.6407C77.1814 49.1137 74.7092 47.6647 67.9882 47.6647C60.465 47.6647 59.589 50.2843 59.589 52.249C59.589 54.6313 60.6205 55.3271 70.7715 56.6696C80.8243 58.004 85.5969 59.8869 85.5969 66.9517C85.5969 74.0737 79.6537 78.1587 69.2898 78.1587L69.3373 78.1202Z" fill="#689F63"/>
</svg>
