<svg width="119" height="119" viewBox="0 0 119 119" fill="none" xmlns="http://www.w3.org/2000/svg">
<g clip-path="url(#clip0_62_322)">
<path d="M21.0729 9.59158e-06H97.9271C100.695 -0.00266623 103.437 0.554551 105.994 1.63977C108.552 2.72499 110.876 4.31691 112.834 6.32441C114.791 8.33192 116.343 10.7156 117.401 13.3391C118.459 15.9625 119.003 18.7742 119 21.6133V97.3867C119.003 100.226 118.459 103.037 117.401 105.661C116.343 108.284 114.791 110.668 112.834 112.676C110.876 114.683 108.552 116.275 105.994 117.36C103.437 118.445 100.695 119.003 97.9271 119H21.0729C18.3049 119.003 15.5634 118.445 13.0056 117.36C10.4477 116.275 8.12362 114.683 6.1663 112.676C4.20898 110.668 2.65686 108.284 1.59878 105.661C0.540687 103.037 -0.00259957 100.226 9.35179e-06 97.3867V21.6133C-0.00259957 18.7742 0.540687 15.9625 1.59878 13.3391C2.65686 10.7156 4.20898 8.33192 6.1663 6.32441C8.12362 4.31691 10.4477 2.72499 13.0056 1.63977C15.5634 0.554551 18.3049 -0.00266623 21.0729 9.59158e-06Z" fill="#000B1D"/>
<g clip-path="url(#clip1_62_322)">
<path d="M59.5001 67.3685C64.0692 67.3685 67.7732 63.7125 67.7732 59.2025C67.7732 54.6925 64.0692 51.0364 59.5001 51.0364C54.931 51.0364 51.2271 54.6925 51.2271 59.2025C51.2271 63.7125 54.931 67.3685 59.5001 67.3685Z" fill="#61DAFB"/>
<path fill-rule="evenodd" clip-rule="evenodd" d="M19.8921 54.1071C17.8848 55.8957 17.0416 57.6208 17.0416 59.2025C17.0416 60.7843 17.8848 62.5093 19.8921 64.2979C21.8992 66.0863 24.9121 67.7844 28.7998 69.2496C36.5617 72.1749 47.4153 74.0242 59.5 74.0242C71.5847 74.0242 82.4383 72.1749 90.2002 69.2496C94.0879 67.7844 97.1008 66.0863 99.1078 64.2979C101.115 62.5093 101.958 60.7843 101.958 59.2025C101.958 57.6208 101.115 55.8957 99.1078 54.1071C97.1008 52.3187 94.0879 50.6206 90.2002 49.1555C82.4383 46.2302 71.5847 44.3808 59.5 44.3808C47.4153 44.3808 36.5617 46.2302 28.7998 49.1555C24.9121 50.6206 21.8992 52.3187 19.8921 54.1071ZM27.4202 45.5891C35.7251 42.4592 47.0675 40.5634 59.5 40.5634C71.9324 40.5634 83.2749 42.4592 91.5798 45.5891C95.7256 47.1516 99.2137 49.0587 101.699 51.2735C104.185 53.4881 105.826 56.1643 105.826 59.2025C105.826 62.2408 104.185 64.917 101.699 67.1316C99.2137 69.3464 95.7256 71.2534 91.5798 72.8159C83.2749 75.9458 71.9324 77.8417 59.5 77.8417C47.0675 77.8417 35.7251 75.9458 27.4202 72.8159C23.2744 71.2534 19.7862 69.3464 17.3006 67.1316C14.8152 64.917 13.1741 62.2408 13.1741 59.2025C13.1741 56.1643 14.8152 53.4881 17.3006 51.2735C19.7862 49.0587 23.2744 47.1516 27.4202 45.5891Z" fill="#61DAFB"/>
<path fill-rule="evenodd" clip-rule="evenodd" d="M44.1667 22.7972C41.5938 21.9756 39.6586 22.1173 38.2708 22.9082C36.8831 23.6991 35.7911 25.2824 35.2255 27.8926C34.66 30.5025 34.6766 33.9271 35.3349 37.9829C36.6493 46.0806 40.4535 56.2832 46.4958 66.6134C52.5382 76.9436 59.5876 85.2968 66.0351 90.4692C69.2644 93.0599 72.2607 94.7863 74.8334 95.6078C77.4063 96.4294 79.3415 96.2877 80.7293 95.4969C82.117 94.706 83.209 93.1226 83.7746 90.5124C84.3401 87.9025 84.3235 84.478 83.6652 80.4222C82.3508 72.3245 78.5466 62.1219 72.5043 51.7917C66.4619 41.4614 59.4125 33.1082 52.965 27.9358C49.7357 25.3452 46.7394 23.6187 44.1667 22.7972ZM55.4042 24.9734C62.3028 30.5076 69.6374 39.2554 75.8536 49.8829C82.0699 60.5105 86.0777 71.1542 87.484 79.8183C88.186 84.1434 88.2569 88.0787 87.5565 91.3109C86.8562 94.5428 85.3287 97.2837 82.663 98.8029C79.9973 100.322 76.8287 100.257 73.643 99.2399C70.4569 98.2226 67.0396 96.1943 63.5959 93.4317C56.6973 87.8975 49.3627 79.1496 43.1465 68.5221C36.9302 57.8946 32.9224 47.2509 31.5161 38.5868C30.8141 34.2616 30.7432 30.3263 31.4436 27.0942C32.1439 23.8623 33.6714 21.1213 36.3371 19.6022C39.0028 18.0831 42.1714 18.1478 45.3572 19.1651C48.5432 20.1825 51.9605 22.2107 55.4042 24.9734Z" fill="#61DAFB"/>
<path fill-rule="evenodd" clip-rule="evenodd" d="M83.7746 27.8926C83.209 25.2824 82.1171 23.6991 80.7293 22.9082C79.3415 22.1173 77.4063 21.9756 74.8334 22.7972C72.2607 23.6187 69.2644 25.3452 66.0351 27.9358C59.5876 33.1082 52.5382 41.4614 46.4958 51.7917C40.4535 62.1219 36.6493 72.3245 35.3349 80.4222C34.6766 84.478 34.66 87.9025 35.2255 90.5124C35.7912 93.1226 36.8831 94.706 38.2709 95.4968C39.6586 96.2877 41.5938 96.4294 44.1667 95.6078C46.7394 94.7863 49.7357 93.0599 52.965 90.4692C59.4126 85.2968 66.462 76.9436 72.5043 66.6134C78.5466 56.2831 82.3508 46.0806 83.6652 37.9828C84.3235 33.9271 84.3401 30.5025 83.7746 27.8926ZM87.484 38.5868C86.0777 47.2509 82.0699 57.8946 75.8536 68.5221C69.6374 79.1496 62.3028 87.8974 55.4042 93.4317C51.9605 96.1943 48.5432 98.2226 45.3572 99.2399C42.1714 100.257 39.0028 100.322 36.3371 98.8029C33.6714 97.2837 32.1439 94.5428 31.4436 91.3109C30.7432 88.0787 30.8141 84.1434 31.5161 79.8183C32.9224 71.1541 36.9303 60.5104 43.1465 49.8829C49.3627 39.2554 56.6973 30.5076 63.5959 24.9734C67.0396 22.2107 70.4569 20.1825 73.643 19.1651C76.8287 18.1478 79.9973 18.083 82.663 19.6022C85.3287 21.1213 86.8562 23.8623 87.5565 27.0942C88.2569 30.3263 88.186 34.2616 87.484 38.5868Z" fill="#61DAFB"/>
</g>
</g>
<defs>
<clipPath id="clip0_62_322">
<rect width="119" height="119" fill="white"/>
</clipPath>
<clipPath id="clip1_62_322">
<rect width="92.82" height="81.515" fill="white" transform="translate(13.0901 18.445)"/>
</clipPath>
</defs>
</svg>
