<svg width="128" height="105" viewBox="0 0 128 105" fill="none" xmlns="http://www.w3.org/2000/svg">
<g clip-path="url(#clip0_42_495)">
<path d="M128 34.6488C128 33.0007 127.338 31.4202 126.161 30.2548C124.983 29.0894 123.386 28.4347 121.72 28.4347C120.055 28.4347 118.458 29.0894 117.28 30.2548C116.102 31.4202 115.441 33.0007 115.441 34.6488C115.441 66.2234 89.4849 91.9083 57.5808 91.9083C45.6421 91.8928 34.197 87.1923 25.7557 78.8378C17.3144 70.4833 12.5661 59.1569 12.5523 47.3428C12.5625 38.2201 16.2292 29.4739 22.7479 23.0232C29.2667 16.5725 38.1051 12.944 47.3241 12.934C54.3664 12.9422 61.118 15.7142 66.0977 20.642C71.0774 25.5697 73.8786 32.2508 73.8869 39.2196C73.8805 44.4668 71.7705 49.497 68.0201 53.2063C64.2697 56.9157 59.1853 59.001 53.8828 59.0046C49.9747 59.001 46.2278 57.4631 43.4643 54.7285C40.7009 51.9939 39.1468 48.2861 39.1431 44.4188C39.1468 41.6548 40.258 39.005 42.233 37.0506C44.2081 35.0962 46.8858 33.9965 49.6789 33.9929C51.581 33.9947 53.4047 34.743 54.75 36.0736C56.0953 37.4042 56.8524 39.2085 56.8552 41.0908C56.8552 42.7388 57.5168 44.3194 58.6944 45.4848C59.8721 46.6502 61.4693 47.3049 63.1348 47.3049C64.8003 47.3049 66.3975 46.6502 67.5752 45.4848C68.7528 44.3194 69.4144 42.7388 69.4144 41.0908C69.408 35.9171 67.3287 30.9571 63.6324 27.2981C59.9362 23.6392 54.9246 21.5798 49.6964 21.5716C43.5741 21.5771 37.704 23.9857 33.3742 28.269C29.0445 32.5523 26.6086 38.3604 26.6013 44.4188C26.6086 51.5775 29.485 58.441 34.5994 63.504C39.7137 68.5669 46.6486 71.4159 53.8828 71.4259C62.5114 71.4159 70.7837 68.0195 76.8851 61.9818C82.9864 55.9442 86.4186 47.7582 86.4288 39.2196C86.4168 28.9594 82.2933 19.1226 74.9627 11.8665C67.632 4.61038 57.6926 0.527313 47.3241 0.512695C21.2287 0.512695 0 21.5198 0 47.3428C0 78.7586 25.8337 104.33 57.5878 104.33C96.4134 104.33 128 73.0692 128 34.6488Z" fill="#A7CD2C"/>
</g>
<defs>
<clipPath id="clip0_42_495">
<rect width="128" height="103.817" fill="white" transform="translate(0 0.512695)"/>
</clipPath>
</defs>
</svg>
