<svg width="104" height="158" viewBox="0 0 104 158" fill="none" xmlns="http://www.w3.org/2000/svg">
<path d="M102.829 95.5416C102.167 94.5633 101.249 93.7792 100.172 93.2721C99.0949 92.7651 97.8986 92.5539 96.7096 92.6609L49.4094 97.0444L72.0044 55.9158C72.578 54.8807 72.8546 53.7113 72.8043 52.5333C72.754 51.3552 72.3788 50.2128 71.719 49.2287C71.0592 48.2446 70.1396 47.4559 69.0589 46.9472C67.9783 46.4385 66.7773 46.2291 65.5849 46.3413L18.2974 50.7081L40.8881 9.58375C41.3002 8.83345 41.5581 8.0106 41.6471 7.16218C41.7362 6.31377 41.6545 5.4564 41.4069 4.63903C41.1593 3.82167 40.7506 3.06031 40.2041 2.39843C39.6576 1.73655 38.984 1.18712 38.2218 0.781488C37.4596 0.37586 36.6237 0.121988 35.7618 0.0343647C34.8999 -0.0532583 34.029 0.0270844 33.1986 0.270806C31.5217 0.763023 30.112 1.89084 29.2798 3.40614L0.802422 55.2206C0.230316 56.2559 -0.0449867 57.4249 0.00598672 58.6024C0.0569601 59.7799 0.432292 60.9215 1.0918 61.9052C1.7513 62.8888 2.67015 63.6774 3.74997 64.1864C4.82979 64.6955 6.02992 64.9059 7.22189 64.7951L54.5094 60.4116L31.9187 101.536C31.3466 102.571 31.0712 103.74 31.1222 104.918C31.1732 106.095 31.5485 107.237 32.208 108.221C32.8675 109.204 33.7864 109.993 34.8662 110.502C35.946 111.011 37.1462 111.221 38.3381 111.11L85.6426 106.748L63.0687 147.872C62.6539 148.623 62.3936 149.447 62.3027 150.296C62.2119 151.146 62.2923 152.005 62.5393 152.824C62.7863 153.643 63.1951 154.406 63.7423 155.07C64.2894 155.733 64.9641 156.283 65.7278 156.689C66.4915 157.096 67.3291 157.349 68.1926 157.436C69.056 157.523 69.9285 157.441 70.7598 157.196C71.5912 156.95 72.3651 156.546 73.0373 156.005C73.7095 155.464 74.2667 154.799 74.677 154.046L103.142 102.215C103.708 101.178 103.977 100.011 103.922 98.8355C103.867 97.6604 103.489 96.522 102.829 95.5416Z" fill="#FDCDCD"/>
</svg>
