<svg width="99" height="114" viewBox="0 0 99 114" fill="none" xmlns="http://www.w3.org/2000/svg">
<path fill-rule="evenodd" clip-rule="evenodd" d="M43.2139 67.779C39.8875 65.3929 36.1771 63.3609 32.6858 61.2335C30.5565 59.936 28.5245 57.7673 26.2662 56.6984C17.7552 71.6904 9.05724 86.6909 2.01013 102.378C7.28204 100.494 13.8137 98.0724 18.3523 94.9313C19.4042 100.677 21.6258 106.086 23.0184 111.721C28.695 96.3308 37.738 82.3041 43.6285 66.9997" fill="white"/>
<path d="M43.2139 67.779C39.8875 65.3929 36.1771 63.3609 32.6858 61.2335C30.5565 59.936 28.5245 57.7673 26.2662 56.6984C17.7552 71.6904 9.05724 86.6909 2.01013 102.378C7.28204 100.494 13.8137 98.0724 18.3523 94.9313C19.4042 100.677 21.6258 106.086 23.0184 111.721C28.695 96.3308 37.738 82.3041 43.6285 66.9997" stroke="#056DFA" stroke-opacity="0.5" stroke-width="3" stroke-miterlimit="1.5" stroke-linecap="round" stroke-linejoin="round"/>
<path fill-rule="evenodd" clip-rule="evenodd" d="M72.4151 59.6927C68.255 62.3426 61.4653 66.4317 57.0623 68.6849C59.2105 76.168 71.5338 104.534 75.0487 110.601C76.2238 104.321 77.3811 97.9403 78.7408 91.6949C84.9499 94.8448 90.4485 97.1769 97.1396 101.371C95.6555 98.3218 76.9614 66.7244 72.4151 59.6927Z" fill="white" stroke="#056DFA" stroke-opacity="0.5" stroke-width="3" stroke-miterlimit="1.5" stroke-linecap="round" stroke-linejoin="round"/>
<path fill-rule="evenodd" clip-rule="evenodd" d="M69.2094 10.5331C66.5746 10.3957 63.8846 11.3278 62.08 13.3745C63.6811 9.57927 60.3674 4.36759 57.1329 2.59433C51.5061 -0.491119 42.2143 3.54273 41.5625 10.101C36.3763 0.294711 22.0475 5.03145 22.6372 15.9155C21.7575 15.3667 20.9045 15.0235 19.909 14.6875C10.7426 11.5924 5.19928 25.1042 11.2188 31.2292C3.28738 33.4709 0.242024 47.189 9.08981 50.3598C-0.30517 55.4343 5.83724 73.3168 16.8657 69.7409C16.1347 72.8418 15.9814 76.6617 17.7261 79.4757C20.5567 84.0409 27.8528 86.1331 32.2647 82.414C32.1914 91.8785 46.3689 93.2645 50.2568 85.7381C56.8405 94.1221 69.4801 90.8896 70.4073 79.9129C72.6018 80.6933 75.0945 81.3679 77.4146 80.7767C84.6239 78.9385 87.8302 70.2672 84.1721 64.1554C92.6291 62.9177 97.7584 48.1686 85.6062 42.7905C90.0711 39.1139 90.7055 32.8383 86.6844 27.169C84.562 24.1762 79.6436 23.5685 76.7026 24.0577C78.0028 20.7691 78.127 17.0963 76.0085 14.1105" fill="white"/>
<path d="M69.2094 10.5331C66.5746 10.3957 63.8846 11.3278 62.08 13.3745C63.6811 9.57927 60.3674 4.36759 57.1329 2.59433C51.5061 -0.491119 42.2143 3.54273 41.5625 10.101C36.3763 0.294711 22.0475 5.03145 22.6372 15.9155C21.7575 15.3667 20.9045 15.0235 19.909 14.6875C10.7426 11.5924 5.19928 25.1042 11.2188 31.2292C3.28738 33.4709 0.242024 47.189 9.08981 50.3598C-0.30517 55.4343 5.83724 73.3168 16.8657 69.7409C16.1347 72.8418 15.9814 76.6617 17.7261 79.4757C20.5567 84.0409 27.8528 86.1331 32.2647 82.414C32.1914 91.8785 46.3689 93.2645 50.2568 85.7381C56.8405 94.1222 69.4801 90.8896 70.4073 79.9129C72.6018 80.6933 75.0945 81.3679 77.4146 80.7767C84.6239 78.9385 87.8302 70.2672 84.1721 64.1554C92.6291 62.9177 97.7584 48.1686 85.6062 42.7905C90.0711 39.1139 90.7055 32.8383 86.6844 27.169C84.5621 24.1762 79.6436 23.5685 76.7026 24.0577C78.0028 20.7691 78.127 17.0963 76.0085 14.1105" stroke="#056DFA" stroke-opacity="0.5" stroke-width="3" stroke-miterlimit="1.5" stroke-linecap="round" stroke-linejoin="round"/>
<path d="M55.5548 18.7743C42.504 12.6926 24.4919 21.0527 19.8007 34.6129C14.311 50.4823 18.2811 67.0204 34.566 74.6757C46.6039 80.3346 62.0728 78.4532 71.5195 68.8335C85.9744 54.1133 81.0578 30.9543 63.5677 22.31" stroke="#056DFA" stroke-opacity="0.5" stroke-width="3" stroke-miterlimit="1.5" stroke-linecap="round" stroke-linejoin="round"/>
<path d="M38.8843 41.1102C42.7533 38.1383 46.2511 34.815 48.08 30.6436" stroke="#056DFA" stroke-opacity="0.5" stroke-width="3" stroke-miterlimit="1.5" stroke-linecap="round" stroke-linejoin="round"/>
<path fill-rule="evenodd" clip-rule="evenodd" d="M48.3218 31.1544C48.0372 40.4891 48.7975 49.8382 48.4206 59.1621L48.3218 31.1544Z" fill="white"/>
<path d="M48.3218 31.1544C48.0372 40.4891 48.7975 49.8382 48.4206 59.1621" stroke="#056DFA" stroke-opacity="0.5" stroke-width="3" stroke-miterlimit="1.5" stroke-linecap="round" stroke-linejoin="round"/>
<path fill-rule="evenodd" clip-rule="evenodd" d="M38.2128 59.9467C45.173 59.1133 52.3302 59.7096 59.2325 58.8195L38.2128 59.9467Z" fill="white"/>
<path d="M38.2128 59.9467C45.173 59.1133 52.3302 59.7096 59.2325 58.8195" stroke="#056DFA" stroke-opacity="0.5" stroke-width="3" stroke-miterlimit="1.5" stroke-linecap="round" stroke-linejoin="round"/>
</svg>
