<svg width="128" height="124" viewBox="0 0 128 124" fill="none" xmlns="http://www.w3.org/2000/svg">
<path fill-rule="evenodd" clip-rule="evenodd" d="M58.0473 93.6275C77.8196 96.6021 80.4341 88.6827 82.6262 76.3916C85.3979 60.849 75.1018 33.6115 56.8261 31.9618C45.2045 30.9126 42.1192 43.6871 35.1402 50.7252C25.1919 60.7576 18.0833 65.3011 6.20288 72.7009C-2.19867 77.9337 2.69768 93.4428 11.639 97.5943C16.4976 99.8502 22.4176 97.2351 27.2585 96.3365C37.4189 94.4503 47.6653 92.0658 58.0473 93.6275Z" fill="white" stroke="#4E51D7" stroke-opacity="0.5" stroke-width="3" stroke-miterlimit="1.5" stroke-linecap="round" stroke-linejoin="round"/>
<path d="M78.7319 71.9598C78.1215 58.8162 72.198 39.3464 56.7963 36.734C48.1242 35.8521 45.2412 48.2441 44.8599 54.6334C44.0669 67.9252 52.1916 87.259 67.5581 88.9739C76.6729 89.9913 79.042 78.6358 78.7319 71.9598Z" stroke="#4E51D7" stroke-opacity="0.5" stroke-width="3" stroke-miterlimit="1.5" stroke-linecap="round" stroke-linejoin="round"/>
<path fill-rule="evenodd" clip-rule="evenodd" d="M61.4761 56.5786C58.2183 58.0369 59.9473 63.7081 61.2846 67.1307C61.8696 68.6281 64.0107 71.5475 65.374 70.9672C69.6377 69.1526 65.2084 55.4316 61.4761 56.5786Z" stroke="#4E51D7" stroke-opacity="0.5" stroke-width="3" stroke-miterlimit="1.5" stroke-linecap="round" stroke-linejoin="round"/>
<path d="M31.4923 95.5388C24.7398 91.9609 19.9173 82.214 17.9263 75.4013C17.0199 72.2999 16.5111 68.8569 17.2232 65.6623" stroke="#4E51D7" stroke-opacity="0.5" stroke-width="3" stroke-miterlimit="1.5" stroke-linecap="round" stroke-linejoin="round"/>
<path d="M7.70166 83.1632C8.13056 85.4623 9.00772 87.7296 10.5348 89.5388" stroke="#4E51D7" stroke-opacity="0.5" stroke-width="3" stroke-miterlimit="1.5" stroke-linecap="round" stroke-linejoin="round"/>
<path d="M12.6624 80.3903C13.2462 82.8455 14.3651 85.0693 16.1092 86.9256" stroke="#4E51D7" stroke-opacity="0.5" stroke-width="3" stroke-miterlimit="1.5" stroke-linecap="round" stroke-linejoin="round"/>
<path fill-rule="evenodd" clip-rule="evenodd" d="M36.5204 94.6135C34.4488 94.925 31.9646 95.4327 29.6141 95.8841C30.5836 97.7714 31.9191 100.11 33.3862 101.676C34.0153 102.347 34.6829 103.046 35.6105 103.293C35.9791 103.392 36.3832 103.398 36.7621 103.367C37.8869 103.274 40.7102 102.943 40.8183 101.427C40.8883 100.442 40.1053 99.4443 39.5418 98.7028C38.5243 97.3635 37.5651 95.9802 36.6226 94.5893" fill="white"/>
<path d="M36.5204 94.6135C34.4488 94.925 31.9646 95.4327 29.6141 95.8841C30.5836 97.7714 31.9191 100.11 33.3862 101.676C34.0153 102.347 34.6829 103.046 35.6105 103.293C35.9791 103.392 36.3832 103.398 36.7621 103.367C37.8869 103.274 40.7102 102.943 40.8183 101.427C40.8883 100.442 40.1053 99.4443 39.5418 98.7028C38.5243 97.3635 37.5651 95.9802 36.6226 94.5893" stroke="#4E51D7" stroke-opacity="0.5" stroke-width="3" stroke-miterlimit="1.5" stroke-linecap="round" stroke-linejoin="round"/>
<path d="M85.2947 90.3755C90.808 91.8838 96.3684 93.2494 101.829 94.9503C100.151 91.9429 99.4068 87.9175 98.3676 84.679C105.032 83.9548 111.841 83.2961 118.438 82.1745C114.302 78.4302 110.564 73.4347 107.2 69.0776C113.55 67.3414 119.793 65.1712 126.007 63.0241C119.676 58.7615 113.366 54.2687 106.752 50.4597C111.109 44.6115 115.168 38.5248 119.761 32.8551C112.086 32.7885 104.409 32.3306 96.735 32.3151C98.8919 26.0712 101.674 19.9764 104.046 13.8095C95.522 16.4218 87.3186 19.9002 78.7002 22.2602C78.5557 17.2088 78.5504 12.1566 78.1173 7.11851C73.7827 11.3024 69.5036 15.5125 64.9132 19.4281C63.7305 16.6277 62.5245 13.8498 61.2154 11.103C59.5784 15.404 58.3691 19.8465 57.1858 24.2853" stroke="#4E51D7" stroke-opacity="0.5" stroke-width="3" stroke-miterlimit="1.5" stroke-linecap="round" stroke-linejoin="round"/>
<path d="M29.6157 95.8868C30.585 97.7736 31.92 100.11 33.3864 101.676C34.0156 102.347 34.6832 103.046 35.6107 103.293C35.9793 103.392 36.3834 103.398 36.7624 103.367C37.5766 103.3 39.2809 103.108 40.2009 102.432C40.6585 102.905 41.1647 103.399 41.6888 103.911C44.0534 106.22 46.7827 108.885 47.0585 111.534C47.2621 113.49 45.4581 115.145 43.7938 115.901C40.1872 117.539 36.52 117.124 33.1812 115.077C27.3035 111.473 24.0192 104.581 21.5661 98.5019C21.5586 98.4836 21.5505 98.4634 21.5417 98.4419C21.4657 98.2545 21.3461 97.9598 21.2904 97.7635C23.7523 97.064 26.8789 96.4147 29.6157 95.8868Z" fill="white"/>
<path d="M61.4049 56.6105C58.2434 58.1192 59.9569 63.7323 61.2843 67.1298C61.8304 68.5273 63.7319 71.1635 65.0914 71.0372C65.0961 71.0488 65.1007 71.0604 65.1054 71.0719C62.2604 72.5255 59.9834 73.9182 57.7999 75.2536C55.8375 76.4537 53.9508 77.6076 51.7953 78.718C49.7507 75.9535 47.5897 71.0999 47.1403 69.5972C47.0462 69.2824 46.954 68.9775 46.8637 68.6789C46.1484 66.3144 45.554 64.3493 45.0981 61.0646C47.1773 60.4635 49.3884 59.9025 51.6225 59.3357C54.9522 58.4908 58.3331 57.633 61.4049 56.6105Z" fill="white"/>
<path d="M29.6157 95.8868C30.585 97.7736 31.92 100.11 33.3864 101.676C34.0156 102.347 34.6832 103.046 35.6107 103.293C35.9793 103.392 36.3834 103.398 36.7624 103.367C37.5766 103.3 39.2809 103.108 40.2009 102.432C40.6585 102.905 41.1647 103.399 41.6888 103.911C44.0534 106.22 46.7827 108.885 47.0585 111.534C47.2621 113.49 45.4581 115.145 43.7938 115.901C40.1872 117.539 36.52 117.124 33.1812 115.077C27.3035 111.473 24.0192 104.581 21.5661 98.5019C21.5586 98.4836 21.5505 98.4634 21.5417 98.4419C21.4657 98.2545 21.3461 97.9598 21.2904 97.7635C23.7523 97.064 26.8789 96.4147 29.6157 95.8868Z" stroke="#4E51D7" stroke-opacity="0.5" stroke-width="3" stroke-miterlimit="1.5" stroke-linecap="round" stroke-linejoin="round"/>
<path d="M61.4049 56.6105C58.2434 58.1192 59.9569 63.7323 61.2843 67.1298C61.8304 68.5273 63.7319 71.1635 65.0914 71.0372C65.0961 71.0488 65.1007 71.0604 65.1054 71.0719C62.2604 72.5255 59.9834 73.9182 57.7999 75.2536C55.8375 76.4537 53.9508 77.6076 51.7953 78.718C49.7507 75.9535 47.5897 71.0999 47.1403 69.5972C47.0462 69.2824 46.954 68.9775 46.8637 68.6789C46.1484 66.3144 45.554 64.3493 45.0981 61.0646C47.1773 60.4635 49.3884 59.9025 51.6225 59.3357C54.9522 58.4908 58.3331 57.633 61.4049 56.6105Z" stroke="#4E51D7" stroke-opacity="0.5" stroke-width="3" stroke-miterlimit="1.5" stroke-linecap="round" stroke-linejoin="round"/>
</svg>
